<svg xmlns="http://www.w3.org/2000/svg" width="1024" height="500" viewBox="0 0 1024 500">
  <!-- Background -->
  <rect width="1024" height="500" fill="#0a0f1e"/>
  <rect width="500" height="500" fill="#1a2a4a" opacity="0.5"/>

  <!-- Decorative circles -->
  <circle cx="820" cy="80" r="180" fill="#1d4ed8" opacity="0.12"/>
  <circle cx="900" cy="400" r="120" fill="#2563eb" opacity="0.10"/>
  <circle cx="600" cy="250" r="300" fill="#1e3a8a" opacity="0.08"/>

  <!-- Logo icon -->
  <rect x="60" y="160" width="80" height="80" rx="20" fill="#2563eb"/>
  <rect x="85" y="176" width="30" height="12" rx="4" fill="white"/>
  <rect x="91" y="188" width="8" height="30" rx="3" fill="white"/>
  <circle cx="110" cy="222" r="10" fill="none" stroke="#93c5fd" stroke-width="2.5"/>
  <circle cx="110" cy="222" r="3" fill="#93c5fd"/>
  <circle cx="100" cy="212" r="2" fill="#93c5fd"/>
  <circle cx="120" cy="212" r="2" fill="#93c5fd"/>
  <circle cx="100" cy="232" r="2" fill="#93c5fd"/>
  <circle cx="120" cy="232" r="2" fill="#93c5fd"/>

  <!-- App Name -->
  <text x="160" y="215" font-family="Arial, sans-serif" font-size="64" font-weight="800" fill="white" letter-spacing="-2">MantPro</text>
  <text x="161" y="252" font-family="Arial, sans-serif" font-size="18" fill="#93c5fd" letter-spacing="0.5">Maintenance Management</text>

  <!-- Divider -->
  <line x1="60" y1="285" x2="440" y2="285" stroke="#1e3a5f" stroke-width="1"/>

  <!-- Feature pills row 1 -->
  <rect x="60" y="305" width="148" height="36" rx="18" fill="#1e3a5f" stroke="#2563eb" stroke-width="1"/>
  <text x="134" y="328" font-family="Arial, sans-serif" font-size="13" fill="#93c5fd" text-anchor="middle">📋 Reportes</text>

  <rect x="218" y="305" width="148" height="36" rx="18" fill="#1e3a5f" stroke="#2563eb" stroke-width="1"/>
  <text x="292" y="328" font-family="Arial, sans-serif" font-size="13" fill="#93c5fd" text-anchor="middle">💰 Presupuestos</text>

  <!-- Feature pills row 2 -->
  <rect x="60" y="352" width="148" height="36" rx="18" fill="#1e3a5f" stroke="#2563eb" stroke-width="1"/>
  <text x="134" y="375" font-family="Arial, sans-serif" font-size="13" fill="#93c5fd" text-anchor="middle">📅 Cronograma</text>

  <rect x="218" y="352" width="148" height="36" rx="18" fill="#1e3a5f" stroke="#2563eb" stroke-width="1"/>
  <text x="292" y="375" font-family="Arial, sans-serif" font-size="13" fill="#93c5fd" text-anchor="middle">🌐 ES / EN</text>

  <!-- Feature pills row 3 -->
  <rect x="60" y="399" width="148" height="36" rx="18" fill="#1e3a5f" stroke="#2563eb" stroke-width="1"/>
  <text x="134" y="422" font-family="Arial, sans-serif" font-size="13" fill="#93c5fd" text-anchor="middle">📄 Export PDF</text>

  <rect x="218" y="399" width="148" height="36" rx="18" fill="#1e3a5f" stroke="#2563eb" stroke-width="1"/>
  <text x="292" y="422" font-family="Arial, sans-serif" font-size="13" fill="#93c5fd" text-anchor="middle">🔔 Tiempo real</text>

  <!-- Center divider -->
  <line x1="490" y1="40" x2="490" y2="460" stroke="#1e3a5f" stroke-width="1"/>

  <!-- Phone frame -->
  <rect x="520" y="30" width="460" height="440" rx="16" fill="#111827" stroke="#1f2937" stroke-width="1.5"/>
  <rect x="520" y="30" width="460" height="70" rx="16" fill="#070d1b"/>
  <rect x="520" y="70" width="460" height="30" fill="#070d1b"/>

  <!-- Header -->
  <rect x="540" y="43" width="26" height="26" rx="7" fill="#2563eb"/>
  <text x="576" y="61" font-family="Arial, sans-serif" font-size="13" font-weight="700" fill="white">MantPro</text>
  <text x="720" y="61" font-family="Arial, sans-serif" font-size="11" fill="#6b7280">Reports</text>
  <text x="790" y="61" font-family="Arial, sans-serif" font-size="11" fill="#6b7280">Clients</text>
  <text x="850" y="61" font-family="Arial, sans-serif" font-size="11" fill="#6b7280">Alerts</text>

  <!-- Stats -->
  <rect x="534" y="85" width="100" height="56" rx="8" fill="#0f172a" stroke="#1f2937" stroke-width="1"/>
  <text x="584" y="107" font-family="Arial, sans-serif" font-size="9" fill="#6b7280" text-anchor="middle">REPORTS</text>
  <text x="584" y="130" font-family="Arial, sans-serif" font-size="22" font-weight="700" fill="white" text-anchor="middle">12</text>

  <rect x="644" y="85" width="100" height="56" rx="8" fill="#0f172a" stroke="#1f2937" stroke-width="1"/>
  <text x="694" y="107" font-family="Arial, sans-serif" font-size="9" fill="#6b7280" text-anchor="middle">IN PROCESS</text>
  <text x="694" y="130" font-family="Arial, sans-serif" font-size="22" font-weight="700" fill="#fb923c" text-anchor="middle">4</text>

  <rect x="754" y="85" width="100" height="56" rx="8" fill="#0f172a" stroke="#1f2937" stroke-width="1"/>
  <text x="804" y="107" font-family="Arial, sans-serif" font-size="9" fill="#6b7280" text-anchor="middle">BILLED</text>
  <text x="804" y="130" font-family="Arial, sans-serif" font-size="15" font-weight="700" fill="#4ade80" text-anchor="middle">$8,400</text>

  <rect x="864" y="85" width="100" height="56" rx="8" fill="#0f172a" stroke="#1f2937" stroke-width="1"/>
  <text x="914" y="107" font-family="Arial, sans-serif" font-size="9" fill="#6b7280" text-anchor="middle">AUTHORIZE</text>
  <text x="914" y="130" font-family="Arial, sans-serif" font-size="22" font-weight="700" fill="#a78bfa" text-anchor="middle">2</text>

  <!-- Report card 1 -->
  <rect x="534" y="155" width="430" height="72" rx="10" fill="#0f172a" stroke="#1f2937" stroke-width="1"/>
  <text x="550" y="175" font-family="Arial, sans-serif" font-size="10" fill="#6b7280">MNT-1042</text>
  <rect x="600" y="163" width="72" height="16" rx="4" fill="#431407"/>
  <text x="636" y="175" font-family="Arial, sans-serif" font-size="9" fill="#fb923c" text-anchor="middle">In Process</text>
  <text x="550" y="195" font-family="Arial, sans-serif" font-size="13" font-weight="700" fill="white">Roof waterproofing</text>
  <text x="550" y="213" font-family="Arial, sans-serif" font-size="10" fill="#6b7280">Torres Corp · J. García</text>
  <text x="920" y="195" font-family="Arial, sans-serif" font-size="13" font-weight="700" fill="#4ade80" text-anchor="end">$8,740</text>
  <rect x="855" y="205" width="64" height="5" rx="2" fill="#1f2937"/>
  <rect x="855" y="205" width="38" height="5" rx="2" fill="#fb923c"/>

  <!-- Report card 2 -->
  <rect x="534" y="237" width="430" height="72" rx="10" fill="#0f172a" stroke="#1f2937" stroke-width="1"/>
  <text x="550" y="257" font-family="Arial, sans-serif" font-size="10" fill="#6b7280">MNT-1041</text>
  <rect x="600" y="245" width="64" height="16" rx="4" fill="#064e3b"/>
  <text x="632" y="257" font-family="Arial, sans-serif" font-size="9" fill="#34d399" text-anchor="middle">Authorized</text>
  <text x="550" y="277" font-family="Arial, sans-serif" font-size="13" font-weight="700" fill="white">Electrical panel repair</text>
  <text x="550" y="295" font-family="Arial, sans-serif" font-size="10" fill="#6b7280">Hotel Palmas · L. Ríos</text>
  <text x="920" y="277" font-family="Arial, sans-serif" font-size="13" font-weight="700" fill="#4ade80" text-anchor="end">$3,200</text>

  <!-- Report card 3 -->
  <rect x="534" y="319" width="430" height="72" rx="10" fill="#0f172a" stroke="#1f2937" stroke-width="1"/>
  <text x="550" y="339" font-family="Arial, sans-serif" font-size="10" fill="#6b7280">MNT-1040</text>
  <rect x="600" y="327" width="72" height="16" rx="4" fill="#14532d"/>
  <text x="636" y="339" font-family="Arial, sans-serif" font-size="9" fill="#4ade80" text-anchor="middle">Approved ✓</text>
  <text x="550" y="359" font-family="Arial, sans-serif" font-size="13" font-weight="700" fill="white">HVAC maintenance</text>
  <text x="550" y="377" font-family="Arial, sans-serif" font-size="10" fill="#6b7280">Vega S.A. · R. López</text>
  <text x="920" y="359" font-family="Arial, sans-serif" font-size="13" font-weight="700" fill="#4ade80" text-anchor="end">$5,100</text>

  <!-- Report card 4 -->
  <rect x="534" y="401" width="430" height="56" rx="10" fill="#0f172a" stroke="#1f2937" stroke-width="1"/>
  <text x="550" y="421" font-family="Arial, sans-serif" font-size="10" fill="#6b7280">MNT-1039</text>
  <rect x="600" y="409" width="56" height="16" rx="4" fill="#1e3a5f"/>
  <text x="628" y="421" font-family="Arial, sans-serif" font-size="9" fill="#60a5fa" text-anchor="middle">Sent</text>
  <text x="550" y="441" font-family="Arial, sans-serif" font-size="13" font-weight="700" fill="white">Plumbing inspection</text>
  <text x="920" y="441" font-family="Arial, sans-serif" font-size="13" font-weight="700" fill="#4ade80" text-anchor="end">$1,850</text>

  <!-- Free trial badge -->
  <rect x="60" y="450" width="200" height="30" rx="8" fill="#14532d" stroke="#4ade80" stroke-width="1"/>
  <text x="160" y="470" font-family="Arial, sans-serif" font-size="12" fill="#4ade80" text-anchor="middle">30-day free trial</text>

  <!-- Copyright -->
  <text x="964" y="486" font-family="Arial, sans-serif" font-size="11" fill="#374151" text-anchor="end">© 2026 JMEB</text>
</svg>
